<?xml version="1.0" encoding="UTF-8" standalone="no"?>
<svg
   xmlns:dc="http://purl.org/dc/elements/1.1/"
   xmlns:cc="http://creativecommons.org/ns#"
   xmlns:rdf="http://www.w3.org/1999/02/22-rdf-syntax-ns#"
   xmlns:svg="http://www.w3.org/2000/svg"
   xmlns="http://www.w3.org/2000/svg"
   viewBox="0 0 793.70135 1122.52"
   height="1122.52"
   width="793.70135"
   xml:space="preserve"
   id="svg2"
   version="1.1"><metadata
     id="metadata8"><rdf:RDF><cc:Work
         rdf:about=""><dc:format>image/svg+xml</dc:format><dc:type
           rdf:resource="http://purl.org/dc/dcmitype/StillImage" /></cc:Work></rdf:RDF></metadata><defs
     id="defs6"><linearGradient
       id="linearGradient32"
       spreadMethod="pad"
       gradientTransform="matrix(289.77417,0,0,-289.77417,127.94336,433.00763)"
       gradientUnits="userSpaceOnUse"
       y2="0"
       x2="1"
       y1="0"
       x1="0"><stop
         id="stop24"
         offset="0"
         style="stop-opacity:1;stop-color:#373535" /><stop
         id="stop26"
         offset="0.277095"
         style="stop-opacity:1;stop-color:#6e6f71" /><stop
         id="stop28"
         offset="0.709498"
         style="stop-opacity:1;stop-color:#b9babd" /><stop
         id="stop30"
         offset="1"
         style="stop-opacity:1;stop-color:#ffffff" /></linearGradient><linearGradient
       id="linearGradient56"
       spreadMethod="pad"
       gradientTransform="matrix(289.77417,0,0,-289.77417,177.55804,433.01672)"
       gradientUnits="userSpaceOnUse"
       y2="0"
       x2="1"
       y1="0"
       x1="0"><stop
         id="stop48"
         offset="0"
         style="stop-opacity:1;stop-color:#ffffff" /><stop
         id="stop50"
         offset="0.290502"
         style="stop-opacity:1;stop-color:#b9babd" /><stop
         id="stop52"
         offset="0.722905"
         style="stop-opacity:1;stop-color:#6e6f71" /><stop
         id="stop54"
         offset="1"
         style="stop-opacity:1;stop-color:#373535" /></linearGradient><clipPath
       id="clipPath66"
       clipPathUnits="userSpaceOnUse"><path
         id="path64"
         d="M 0,841.89 H 595.276 V 0 H 0 Z" /></clipPath><linearGradient
       id="linearGradient78"
       spreadMethod="pad"
       gradientTransform="matrix(118.969,0,0,118.969,-59.4848,874.1489)"
       gradientUnits="userSpaceOnUse"
       y2="0"
       x2="1"
       y1="0"
       x1="0"><stop
         id="stop70"
         offset="0"
         style="stop-opacity:1;stop-color:#ffffff" /><stop
         id="stop72"
         offset="0.290502"
         style="stop-opacity:1;stop-color:#b9babd" /><stop
         id="stop74"
         offset="0.722905"
         style="stop-opacity:1;stop-color:#6e6f71" /><stop
         id="stop76"
         offset="1"
         style="stop-opacity:1;stop-color:#373535" /></linearGradient></defs><g
     transform="matrix(1.3333333,0,0,-1.3333333,0,1122.52)"
     id="g10"><g
       id="g12"><g
         id="g14"><g
           id="g20"><g
             id="g22"><path
               id="path34"
               style="fill:url(#linearGradient32);stroke:none"
               d="m 127.943,433.012 c 0,-92.561 75.137,-167.692 168.143,-168.517 v 0 c 0.517,-0.007 1.035,-0.009 1.552,-0.009 v 0 c 0.518,0 1.035,0.002 1.553,0.009 v 0 c 65.603,0.828 118.527,53.965 118.527,119.396 v 0 c 0,17.511 -3.79,34.14 -10.599,49.121 v 0 C 388.283,391.568 346.349,362.73 297.638,362.73 v 0 c -48.711,0 -90.646,28.838 -109.481,70.282 v 0 c -6.81,14.982 -10.599,31.61 -10.599,49.122 v 0 c 0,65.43 52.923,118.567 118.528,119.395 v 0 C 203.08,600.704 127.943,525.573 127.943,433.012" /></g></g></g></g><g
       id="g36"><g
         id="g38"><g
           id="g44"><g
             id="g46"><path
               id="path58"
               style="fill:url(#linearGradient56);stroke:none"
               d="M 296.086,601.529 C 230.481,600.701 177.558,547.564 177.558,482.134 v 0 c 0,-17.512 3.789,-34.14 10.599,-49.122 v 0 c 18.835,41.444 60.77,70.282 109.481,70.282 v 0 c 48.711,0 90.645,-28.838 109.481,-70.282 v 0 c 6.809,-14.981 10.599,-31.61 10.599,-49.121 v 0 c 0,-65.431 -52.924,-118.568 -118.527,-119.396 v 0 c 93.004,0.825 168.141,75.956 168.141,168.517 v 0 c 0,92.561 -75.137,167.692 -168.141,168.517 v 0 c -0.518,0.007 -1.035,0.009 -1.553,0.009 v 0 c -0.517,0 -1.035,-0.002 -1.552,-0.009" /></g></g></g></g><g
       id="g60"><g
         clip-path="url(#clipPath66)"
         id="g62"><g
           transform="translate(297.6378,469.9719)"
           id="g68"><path
             id="path80"
             style="fill:none;stroke:url(#linearGradient78);stroke-width:19;stroke-linecap:butt;stroke-linejoin:miter;stroke-miterlimit:10;stroke-dasharray:none;stroke-opacity:1"
             d="M 0,0 -42.973,-73.92 H 42.973 Z" /></g></g></g></g></svg>
